<svg width="50" height="50" viewBox="0 0 50 50" fill="none" xmlns="http://www.w3.org/2000/svg">
<rect width="50" height="50" rx="25" fill="#4C837A"/>
<path d="M10.0632 21.3678C10.3432 21.3678 10.4832 21.4811 10.4832 21.7078C10.4832 22.0411 10.1566 22.3811 9.50322 22.7278C9.22322 22.8878 8.56989 23.1611 7.54322 23.5478C6.51656 23.9211 5.65656 24.2678 4.96322 24.5878C6.09656 24.9078 7.22989 25.3411 8.36322 25.8878C9.50989 26.4211 10.0832 26.8078 10.0832 27.0478C10.0832 27.4878 9.95656 27.7078 9.70322 27.7078C9.50322 27.7078 8.66322 27.3745 7.18322 26.7078C5.70322 26.0411 4.64322 25.6211 4.00322 25.4478C3.36322 25.2611 3.04322 25.0411 3.04322 24.7878C3.04322 24.6545 3.10322 24.5411 3.22322 24.4478C3.34322 24.3545 3.53656 24.3078 3.80322 24.3078C4.06989 24.3078 5.64989 23.6078 8.54322 22.2078C8.84989 22.0611 9.16989 21.8878 9.50322 21.6878C9.84989 21.4745 10.0366 21.3678 10.0632 21.3678ZM15.1904 22.4478C15.3771 21.0078 15.8104 19.9011 16.4904 19.1278C17.1837 18.3411 18.0904 17.9478 19.2104 17.9478C20.3304 17.9478 20.8904 18.3345 20.8904 19.1078C20.8904 19.6278 20.7637 20.1078 20.5104 20.5478C20.2704 20.9745 19.9437 21.3345 19.5304 21.6278C18.7171 22.1745 17.7637 22.5678 16.6704 22.8078C16.4037 25.1011 16.0104 26.7411 15.4904 27.7278C16.7171 28.1411 17.5437 28.4078 17.9704 28.5278C18.3971 28.6345 18.8437 28.6878 19.3104 28.6878C19.7904 28.6878 20.1171 28.4945 20.2904 28.1078C20.4637 27.7211 20.5904 27.5278 20.6704 27.5278C20.8304 27.5278 20.9104 27.6278 20.9104 27.8278C20.9104 28.4545 20.6771 28.9878 20.2104 29.4278C19.7437 29.8678 19.2371 30.0878 18.6904 30.0878C18.1304 30.0878 17.6237 29.9945 17.1704 29.8078C16.7171 29.6211 16.4304 29.5011 16.3104 29.4478C16.1904 29.3945 15.9437 29.2811 15.5704 29.1078C15.2104 28.9345 14.9571 28.8145 14.8104 28.7478C14.3037 29.2811 13.6237 29.5478 12.7704 29.5478C12.4237 29.5478 12.1171 29.4211 11.8504 29.1678C11.5837 28.9145 11.4504 28.6145 11.4504 28.2678C11.4504 27.5078 11.8837 27.1278 12.7504 27.1278C13.1237 27.1278 13.6437 27.2145 14.3104 27.3878C14.5637 26.5878 14.8304 25.1345 15.1104 23.0278C14.9637 23.0411 14.7637 23.0478 14.5104 23.0478C14.2704 23.0478 14.1504 23.0078 14.1504 22.9278C14.1504 22.6745 14.4971 22.5145 15.1904 22.4478ZM16.7304 22.2278C17.5837 22.0411 18.2837 21.7278 18.8304 21.2878C19.3904 20.8345 19.6704 20.2478 19.6704 19.5278C19.6704 18.8078 19.4237 18.4478 18.9304 18.4478C17.8504 18.4478 17.1171 19.7078 16.7304 22.2278ZM13.8504 28.3278C13.0771 27.9945 12.5971 27.8278 12.4104 27.8278C12.2371 27.8278 12.1504 27.9211 12.1504 28.1078C12.1504 28.2945 12.2304 28.4545 12.3904 28.5878C12.5637 28.7211 12.7837 28.7878 13.0504 28.7878C13.3171 28.7878 13.5837 28.6345 13.8504 28.3278ZM29.0188 26.2478C29.1122 26.1145 29.2455 25.8811 29.4188 25.5478C29.8455 24.7878 30.0988 24.4078 30.1788 24.4078C30.2722 24.4078 30.3188 24.4611 30.3188 24.5678C30.3188 25.2211 29.9788 26.0478 29.2988 27.0478C28.0722 28.8478 26.4388 29.7478 24.3988 29.7478C23.8255 29.7478 23.2988 29.6145 22.8188 29.3478C22.3388 29.0811 21.9588 28.7411 21.6788 28.3278C21.1055 27.4878 20.8188 26.6078 20.8188 25.6878C20.8188 23.3678 21.4188 21.5011 22.6188 20.0878C23.8322 18.6611 25.2655 17.9478 26.9188 17.9478C27.5455 17.9478 28.0588 18.1345 28.4588 18.5078C28.8588 18.8678 29.0588 19.3278 29.0588 19.8878C29.0588 20.4478 28.9188 20.9678 28.6388 21.4478C28.3588 21.9278 28.0188 22.1678 27.6188 22.1678C27.2322 22.1678 27.0388 22.0611 27.0388 21.8478C27.0388 21.6078 27.1655 21.3345 27.4188 21.0278C27.6855 20.7211 27.8188 20.4145 27.8188 20.1078C27.8188 19.1611 27.3122 18.6878 26.2988 18.6878C25.2988 18.6878 24.3922 19.3611 23.5788 20.7078C22.7655 22.0545 22.3588 23.4411 22.3588 24.8678C22.3588 25.8545 22.6388 26.7345 23.1988 27.5078C23.7588 28.2678 24.5455 28.6478 25.5588 28.6478C26.7588 28.6478 27.9122 27.8478 29.0188 26.2478ZM33.1254 32.5678C32.9387 32.5678 32.7854 32.4745 32.6654 32.2878C32.5454 32.1145 32.4854 31.9211 32.4854 31.7078C32.4854 31.5078 32.5721 31.1811 32.7454 30.7278C32.9187 30.2878 33.0987 29.8811 33.2854 29.5078C33.6454 28.8278 34.0521 28.0878 34.5054 27.2878C35.0521 26.2078 35.6054 24.6078 36.1654 22.4878C36.7254 20.3678 37.1054 19.0945 37.3054 18.6678C37.5054 18.2278 37.7387 18.0078 38.0054 18.0078C38.0987 18.0078 38.1454 18.0878 38.1454 18.2478C38.1454 18.4078 38.1054 18.6478 38.0254 18.9678C36.8121 24.1811 35.7054 28.0545 34.7054 30.5878C34.4921 31.1211 34.2254 31.5811 33.9054 31.9678C33.5854 32.3678 33.3254 32.5678 33.1254 32.5678ZM39.6537 27.7878C39.3737 27.7878 39.2337 27.6745 39.2337 27.4478C39.2337 27.1145 39.5604 26.7745 40.2137 26.4278C40.4937 26.2678 41.147 26.0011 42.1737 25.6278C43.2004 25.2411 44.0604 24.8878 44.7537 24.5678C43.647 24.3278 42.5137 23.9211 41.3537 23.3478C40.207 22.7745 39.6337 22.3611 39.6337 22.1078C39.6337 21.6145 39.7737 21.3678 40.0537 21.3678C40.227 21.3678 41.027 21.7345 42.4537 22.4678C43.8937 23.2011 44.8737 23.6278 45.3937 23.7478C45.927 23.8678 46.2804 23.9611 46.4537 24.0278C46.627 24.0945 46.7137 24.1878 46.7137 24.3078C46.7137 24.4278 46.6404 24.5478 46.4937 24.6678C46.3604 24.7878 46.1537 24.8545 45.8737 24.8678C45.5937 24.8811 44.027 25.5745 41.1737 26.9478C40.867 27.0945 40.5404 27.2745 40.1937 27.4878C39.8604 27.6878 39.6804 27.7878 39.6537 27.7878Z" fill="white"/>
</svg>
